<svg xmlns="http://www.w3.org/2000/svg" shape-rendering="geometricPrecision" text-rendering="geometricPrecision" image-rendering="optimizeQuality" fill-rule="evenodd" clip-rule="evenodd" viewBox="0 0 512 492.585"><path fill="#476AA8" d="M101.509 0h299.515c35.975 0 65.407 29.463 65.407 65.407v361.768c0 35.946-29.462 65.408-65.407 65.408H101.509c-35.946 0-65.408-29.433-65.408-65.408V65.407C36.101 29.432 65.534 0 101.509 0z"/><path fill="#1A334D" d="M108.828 492.585h-7.32c-35.976 0-65.408-29.47-65.408-65.408V65.409C36.1 29.471 65.568.002 101.508.002h7.32v492.583z"/><path fill="#F39C11" fill-rule="nonzero" d="M466.431 197.295l31.156.004c2.184 0 4.213.457 6.162 1.372l-.008.017c2.169 1.027 3.873 2.437 5.221 4.235l-.029.027c.921 1.227 1.625 2.494 2.115 3.798.632 1.686.95 3.365.95 5.036v68.044c0 1.96-.461 3.851-1.392 5.689a13.519 13.519 0 01-2.49 3.473l-.025-.025c-1.089 1.089-2.255 1.941-3.494 2.553l-.021-.034c-1.843.921-3.716 1.378-5.62 1.378l-32.525-.002v-95.565z"/><path fill="#24AE5F" fill-rule="nonzero" d="M466.433 71.954l31.158-.002c2.157 0 4.175.461 6.118 1.375 2.193 1.029 3.905 2.45 5.253 4.257l-.029.019c1.047 1.403 1.832 2.868 2.336 4.466l-.041.014c.508 1.604.772 3.174.772 4.759v67.645c0 1.46-.268 2.929-.812 4.351a11.933 11.933 0 01-.764 1.7 12.827 12.827 0 01-3.397 3.972 13.514 13.514 0 01-2.376 1.547l-.008-.017-.037.017c-1.847.923-3.721 1.39-5.643 1.39h-32.53V71.954z"/><path fill="#C2382C" fill-rule="nonzero" d="M466.433 325.148h31.15c1.746 0 3.4.289 5.033.861 2.111.743 3.83 1.828 5.256 3.254l-.011.01c1.476 1.451 2.567 3.205 3.266 5.222l-.012-.002.012.04a15.28 15.28 0 01.869 5.029v67.549c0 1.168-.159 2.344-.475 3.534-.082.322-.172.651-.279.982a12.882 12.882 0 01-3.124 5.081 13.376 13.376 0 01-3.473 2.538c-1.834.927-3.729 1.384-5.687 1.384l-32.525.002v-95.484z"/><path fill="#fff" fill-rule="nonzero" d="M229.002 242.8c-4.674-7.353-13.388-17.451-13.388-26.187a14.074 14.074 0 019.44-12.777c-.431-7.353-.726-14.841-.726-22.262 0-4.379 0-8.804.249-13.138a43.18 43.18 0 011.473-8.146 46.867 46.867 0 0120.905-26.551 61.155 61.155 0 0111.347-5.426c7.235-2.606 3.65-14.702 11.524-14.861 18.403-.476 48.652 16.362 60.453 29.138a46.716 46.716 0 0112.05 30.273l-.748 32.223a10.567 10.567 0 017.737 6.602c2.519 10.189-8.033 22.829-12.934 30.93-4.539 7.466-21.83 31.61-21.83 31.77 2.446 36.465 86.372 7.897 86.372 84.931l-237.012.001c0-75.257 87.641-50.989 86.737-85 0-.476-19.879-28.593-21.648-31.429l-.001-.091z"/><path fill-rule="nonzero" d="M17.729 108.571C7.939 108.571 0 100.633 0 90.843c0-9.79 7.939-17.729 17.729-17.729h51.742c9.79 0 17.729 7.939 17.729 17.729s-7.939 17.728-17.729 17.728H17.729zm0 310.899C7.939 419.47 0 411.532 0 401.742c0-9.79 7.939-17.729 17.729-17.729h51.742c9.79 0 17.729 7.939 17.729 17.729s-7.939 17.728-17.729 17.728H17.729zm0-77.724C7.939 341.746 0 333.808 0 324.018c0-9.79 7.939-17.729 17.729-17.729h51.742c9.79 0 17.729 7.939 17.729 17.729s-7.939 17.728-17.729 17.728H17.729zm0-77.725C7.939 264.021 0 256.082 0 246.292c0-9.789 7.939-17.728 17.729-17.728h51.742c9.79 0 17.729 7.939 17.729 17.728 0 9.79-7.939 17.729-17.729 17.729H17.729zm0-77.728C7.939 186.293 0 178.355 0 168.565c0-9.79 7.939-17.729 17.729-17.729h51.742c9.79 0 17.729 7.939 17.729 17.729s-7.939 17.728-17.729 17.728H17.729z"/></svg>